<?xml version="1.0" encoding="UTF-8"?>
<svg width="32" height="32" viewBox="0 0 32 32" xmlns="http://www.w3.org/2000/svg">
  <path d="M16 0C7.163 0 0 7.163 0 16s7.163 16 16 16 16-7.163 16-16S24.837 0 16 0zm0 30C8.28 30 2 23.72 2 16S8.28 2 16 2s14 6.28 14 14-6.28 14-14 14z" fill="#4a90e2"/>
  <path d="M22.5 9.5c-.276 0-.5.224-.5.5v12c0 2.485-2.015 4.5-4.5 4.5S13 24.485 13 22s2.015-4.5 4.5-4.5c.828 0 1.5.672 1.5 1.5v-5.5h3.5c.276 0 .5-.224.5-.5s-.224-.5-.5-.5h-4c-.276 0-.5.224-.5.5v6.5c0 .828-.672 1.5-1.5 1.5s-1.5-.672-1.5-1.5.672-1.5 1.5-1.5c1.933 0 3.5 1.567 3.5 3.5s-1.567 3.5-3.5 3.5S12 23.933 12 22V10c0-.276.224-.5.5-.5h10z" fill="#4a90e2"/>
</svg>
